<svg width="552" height="124" viewBox="0 0 552 124" fill="none" xmlns="http://www.w3.org/2000/svg">
<g filter="url(#filter0_d_14_12)">
<rect x="4" width="544" height="114" rx="57" fill="white"/>
</g>
<path d="M184.711 77.5C174.327 77.5 165.922 69.2102 165.922 59C165.922 48.7898 174.327 40.5 184.711 40.5C195.095 40.5 203.5 48.7898 203.5 59C203.5 69.2102 195.095 77.5 184.711 77.5Z" fill="#804EA3" stroke="black"/>
<path d="M130 77.5C119.616 77.5 111.211 69.2102 111.211 59C111.211 48.7898 119.616 40.5 130 40.5C140.384 40.5 148.789 48.7898 148.789 59C148.789 69.2102 140.384 77.5 130 77.5Z" stroke="black"/>
<path d="M75.2891 77.5C64.905 77.5 56.5 69.2102 56.5 59C56.5 48.7898 64.905 40.5 75.2891 40.5C85.6732 40.5 94.0782 48.7898 94.0782 59C94.0782 69.2102 85.6732 77.5 75.2891 77.5Z" stroke="black"/>
<path d="M237.14 44C240.58 44 243.08 44.78 244.64 46.34C246.24 47.86 247.04 50.3 247.04 53.66V74H242.18V69.32C239.86 72.92 237.24 74.72 234.32 74.72C232 74.72 230.14 73.92 228.74 72.32C227.38 70.72 226.7 68.54 226.7 65.78V64.1C226.7 61.7 227.52 59.72 229.16 58.16C230.8 56.56 233 55.76 235.76 55.76C237.28 55.76 239.34 56.02 241.94 56.54V53.24C241.94 51.52 241.54 50.28 240.74 49.52C239.98 48.76 238.78 48.38 237.14 48.38C235.22 48.38 232.52 48.68 229.04 49.28V44.9C232.8 44.3 235.5 44 237.14 44ZM237.02 59.72C235.34 59.72 234.06 60.16 233.18 61.04C232.3 61.92 231.86 63.16 231.86 64.76V65.42C231.86 66.9 232.2 68.06 232.88 68.9C233.56 69.74 234.42 70.16 235.46 70.16C236.54 70.16 237.64 69.7 238.76 68.78C239.92 67.82 240.98 66.48 241.94 64.76V60.14C240.42 59.86 238.78 59.72 237.02 59.72ZM267.933 44C270.493 44 272.453 44.88 273.813 46.64C275.213 48.36 275.913 50.82 275.913 54.02V74H270.813V54.74C270.813 50.74 269.513 48.74 266.913 48.74C265.753 48.74 264.573 49.18 263.373 50.06C262.173 50.94 261.133 52.14 260.253 53.66V74H255.153V44.72H259.953V49.1C261.033 47.46 262.233 46.2 263.553 45.32C264.913 44.44 266.373 44 267.933 44ZM297.113 44C299.673 44 301.633 44.88 302.993 46.64C304.393 48.36 305.093 50.82 305.093 54.02V74H299.993V54.74C299.993 50.74 298.693 48.74 296.093 48.74C294.933 48.74 293.753 49.18 292.553 50.06C291.353 50.94 290.313 52.14 289.433 53.66V74H284.333V44.72H289.133V49.1C290.213 47.46 291.413 46.2 292.733 45.32C294.093 44.44 295.553 44 297.113 44ZM322.453 44C325.893 44 328.393 44.78 329.953 46.34C331.553 47.86 332.353 50.3 332.353 53.66V74H327.493V69.32C325.173 72.92 322.553 74.72 319.633 74.72C317.313 74.72 315.453 73.92 314.053 72.32C312.693 70.72 312.013 68.54 312.013 65.78V64.1C312.013 61.7 312.833 59.72 314.473 58.16C316.113 56.56 318.313 55.76 321.073 55.76C322.593 55.76 324.653 56.02 327.253 56.54V53.24C327.253 51.52 326.853 50.28 326.053 49.52C325.293 48.76 324.093 48.38 322.453 48.38C320.533 48.38 317.833 48.68 314.353 49.28V44.9C318.113 44.3 320.813 44 322.453 44ZM322.333 59.72C320.653 59.72 319.373 60.16 318.493 61.04C317.613 61.92 317.173 63.16 317.173 64.76V65.42C317.173 66.9 317.513 68.06 318.193 68.9C318.873 69.74 319.733 70.16 320.773 70.16C321.853 70.16 322.953 69.7 324.073 68.78C325.233 67.82 326.293 66.48 327.253 64.76V60.14C325.733 59.86 324.093 59.72 322.333 59.72ZM353.366 54.32V58.22H340.166V54.32H353.366ZM371.402 44C374.962 44 377.602 44.96 379.322 46.88C381.082 48.76 381.962 51.44 381.962 54.92V63.8C381.962 67.28 381.082 69.98 379.322 71.9C377.602 73.78 374.962 74.72 371.402 74.72C367.842 74.72 365.182 73.78 363.422 71.9C361.702 69.98 360.842 67.28 360.842 63.8V54.92C360.842 51.44 361.702 48.76 363.422 46.88C365.182 44.96 367.842 44 371.402 44ZM371.402 48.26C369.682 48.26 368.342 48.8 367.382 49.88C366.422 50.96 365.942 52.5 365.942 54.5V64.22C365.942 66.22 366.422 67.76 367.382 68.84C368.342 69.92 369.682 70.46 371.402 70.46C373.122 70.46 374.462 69.92 375.422 68.84C376.382 67.76 376.862 66.22 376.862 64.22V54.44C376.862 52.44 376.382 50.92 375.422 49.88C374.462 48.8 373.122 48.26 371.402 48.26ZM394.843 33.02V74H389.743V33.02H394.843ZM408.32 44.72V74H403.22V44.72H408.32ZM405.74 32.9C406.82 32.9 407.64 33.14 408.2 33.62C408.8 34.1 409.1 34.78 409.1 35.66V37.4C409.1 38.28 408.8 38.96 408.2 39.44C407.64 39.88 406.82 40.1 405.74 40.1C404.7 40.1 403.88 39.88 403.28 39.44C402.72 38.96 402.44 38.28 402.44 37.4V35.66C402.44 34.78 402.72 34.1 403.28 33.62C403.88 33.14 404.7 32.9 405.74 32.9ZM437.816 44.72L428.756 74H422.096L413.096 44.72H418.496L425.456 70.28L432.416 44.72H437.816ZM447.695 44.72V74H442.595V44.72H447.695ZM445.115 32.9C446.195 32.9 447.015 33.14 447.575 33.62C448.175 34.1 448.475 34.78 448.475 35.66V37.4C448.475 38.28 448.175 38.96 447.575 39.44C447.015 39.88 446.195 40.1 445.115 40.1C444.075 40.1 443.255 39.88 442.655 39.44C442.095 38.96 441.815 38.28 441.815 37.4V35.66C441.815 34.78 442.095 34.1 442.655 33.62C443.255 33.14 444.075 32.9 445.115 32.9ZM465.011 44C468.451 44 470.951 44.78 472.511 46.34C474.111 47.86 474.911 50.3 474.911 53.66V74H470.051V69.32C467.731 72.92 465.111 74.72 462.191 74.72C459.871 74.72 458.011 73.92 456.611 72.32C455.251 70.72 454.571 68.54 454.571 65.78V64.1C454.571 61.7 455.391 59.72 457.031 58.16C458.671 56.56 460.871 55.76 463.631 55.76C465.151 55.76 467.211 56.02 469.811 56.54V53.24C469.811 51.52 469.411 50.28 468.611 49.52C467.851 48.76 466.651 48.38 465.011 48.38C463.091 48.38 460.391 48.68 456.911 49.28V44.9C460.671 44.3 463.371 44 465.011 44ZM464.891 59.72C463.211 59.72 461.931 60.16 461.051 61.04C460.171 61.92 459.731 63.16 459.731 64.76V65.42C459.731 66.9 460.071 68.06 460.751 68.9C461.431 69.74 462.291 70.16 463.331 70.16C464.411 70.16 465.511 69.7 466.631 68.78C467.791 67.82 468.851 66.48 469.811 64.76V60.14C468.291 59.86 466.651 59.72 464.891 59.72Z" fill="#804EA3"/>
<defs>
<filter id="filter0_d_14_12" x="0" y="0" width="552" height="122" filterUnits="userSpaceOnUse" color-interpolation-filters="sRGB">
<feFlood flood-opacity="0" result="BackgroundImageFix"/>
<feColorMatrix in="SourceAlpha" type="matrix" values="0 0 0 0 0 0 0 0 0 0 0 0 0 0 0 0 0 0 127 0" result="hardAlpha"/>
<feOffset dy="4"/>
<feGaussianBlur stdDeviation="2"/>
<feComposite in2="hardAlpha" operator="out"/>
<feColorMatrix type="matrix" values="0 0 0 0 0 0 0 0 0 0 0 0 0 0 0 0 0 0 0.25 0"/>
<feBlend mode="normal" in2="BackgroundImageFix" result="effect1_dropShadow_14_12"/>
<feBlend mode="normal" in="SourceGraphic" in2="effect1_dropShadow_14_12" result="shape"/>
</filter>
</defs>
</svg>
